/* XPM */
static char *_6f293d293cb48afe041428a186c33b4G0K5hu0acA5s6GS8[] = {
/* columns rows colors chars-per-pixel */
"32 32 9 1 ",
"  c black",
". c #660005",
"X c #940007",
"o c #FF5100",
"O c #F77031",
"+ c #FCCD0F",
"@ c #FFF200",
"# c #F5A458",
"$ c #FFF9BD",
/* pixels */
"              ....      $       ",
"  $          .    .           $ ",
"         ....  $   ....         ",
"         .     ..     .         ",
"        .  $  ....     .        ",
"       .     ......     .       ",
"      .     ........     .$     ",
"      .     ........     .      ",
"      .     ........     .      ",
"      .    ..........    .      ",
"    $ .   ............   .      ",
"       . .............. .$    $ ",
"        ................        ",
"        ................        ",
"       ..................       ",
"  $     .o+X.oX@.@o@.oo.        ",
"        .O++.ooX.o@o.oO.        ",
"        .o##.o@o.#@+.+o. $      ",
"      $ .#+#.#O#.@O#.X+.        ",
"  $     .o+o.##X.@#+.+X.        ",
"        .oo#.###.#XX.++.        ",
"        .#o#.@++.+Oo.oo.      $ ",
"        .#O#.+O@.X@@.##.        ",
"    $   .oo@.@@@.@O@.X#.        ",
"$       .#@#.@X@.@@#.O#.        ",
"        .+##.@X@.@@O.@o.        ",
"        .o#o.Oo#.#+O.oo.    $   ",
"        .++o.o+#.@@@.@+.        ",
"        .ooO.ooo.o##.#+.        ",
"       ..................       ",
"       ..................      $",
" $                              "
};
