/* XPM */
static char *result[] = {
/* columns rows colors chars-per-pixel */
"32 32 4 1 ",
"  c black",
". c #660005",
"X c #940007",
"o c #FFF9BD",
/* pixels */
"       o   ..oooooo..           ",
" o        .oooooooooo.       o  ",
"         .ooooooooo.oo.         ",
"        .ooo.ooooo.oooo.        ",
"        .oooo.ooo.ooooo.        ",
"        .ooo.ooooo.oooo. o      ",
"     o .ooo..ooooo..ooo.        ",
"       .oo....ooo....ooo.       ",
"       .oo....ooo....ooo.       ",
"       .oo....ooo....ooo.       ",
"       .oooooooooooooooo.       ",
" o    .oooooooooooooooooo.      ",
"      .oooooooooooooooooo.      ",
"      .ooooooo...oooooooo.      ",
"      ....ooooooo.oooo....      ",
"      .ooo.oooooo.ooo.ooo.      ",
"   o  .oooo.oooooooo.oooo.      ",
"      .ooooo.oooooo.ooooo.      ",
"      .ooooo.oooooo.ooooo.      ",
"      .ooooo.oooooo.ooooo.   o  ",
"      .oooo.X.oooo.X.oooo.      ",
" o    .ooo.XX.oooo.XX.ooo.      ",
"      .oo.XX.oooooo.XX.ooo.     ",
"      .o.XXX.oooooo.XXX.oo.     ",
"     .X.XXX.oooooooo.XXX.o.    o",
"     ..XX...oooooooo...XX..     ",
"   o .XX.oooooooooooooo.XX.     ",
"     ...oooooooooooooooo...     ",
"     .oooooooooooooooooooo.     ",
"    .ooooooooXooooooooooooo.    ",
"o   .oooooooXXXXXoooooooooo.    ",
"    .ooooooXXXXXXXXXooooooo.  o "
};
