/* XPM */
static char *_fcd95a11af34c42fea84134e203037bPuXO0spgMcUmsZtd[] = {
/* columns rows colors chars-per-pixel */
"32 32 9 1 ",
"  c black",
". c #ED1C24",
"X c #FF7E00",
"o c #A8E61D",
"O c #FFF200",
"+ c #2F3699",
"@ c #6F3198",
"# c #FFF9BD",
"$ c #99D9EA",
/* pixels */
"                                ",
"           #........        #   ",
"         ..............         ",
"  #     ................        ",
"      ......XXXXXXX.......      ",
"     .....XXXXXXXXXXX......     ",
"    ....XXXXXOOOOOXXXXX.....    ",
"    ...XXXOOOOOOOOOOOXXX....    ",
"   ...XXXOOOOoooooOOOOXXX....   ",
"  ...XXXOOOoooooooooOOOXXX....  ",
"  ...XXOOOooo$$$$ooooOOOXX....  ",
"  ..XXOOOooo$$$$$$$oooOOOXX...  ",
" ...XXOOooo$$$+++$$$oooOOXX.... ",
" ..XXXOOoo$$$+++++$$$oooOOXX... ",
" ..XXOOoo$$$+++@+++$$$ooOOXX... ",
" ..XXOOoo$$+++@@@+++$$ooOOXX... ",
" ..XXOOoo$$++@@#@@++$$ooOOXX... ",
" ..XXOOoo$$+++@@@+++$$ooOOXX... ",
" ..XXOOoo$$$+++@+++$$$ooOOXX... ",
" ..XXOOooo$$$+++++$$$oooOOXX... ",
"  ..XXOOooo$$$+++$$$oooOOXX...  ",
"  ..XXOOOooo$$$$$$$oooOOOXX...  ",
"  ...XXOOOooo$$$$$oooOOOXX....  ",
"   ..XXXOOOoooooooooOOOXXX...   ",
"    ..XXXOOOOooooooOOOXXX...    ",
"    ...XXXOOOOOOOOOOOXXX....    ",
"     ...XXXXXOOOOOOXXXX....   # ",
"      ....XXXXXXXXXXX.....      ",
"       #....XXXXXXXX....        ",
"         ..............         ",
"#           ........            ",
"                        #       "
};
