/* XPM */
static char *_2682d06a92f45beea589f9583167da2344Y1QKpvYrV0mOF[] = {
/* columns rows colors chars-per-pixel */
"32 32 5 1 ",
"  c black",
". c #1F0103",
"X c #360206",
"o c #660005",
"O c #FFF9BD",
/* pixels */
"                                ",
"           Ooooooooo        O   ",
"         oooooooooooooo         ",
"  O     oooooooooooooooo        ",
"      ooooooooooooooOooooo      ",
"     oooooooooooooooooooooo     ",
"    oooooooooooooooooooooooo    ",
"    oooooooooooooooooooooooo    ",
"   oooooooooXXXXXXXoooooooooo   ",
"  ooooOooooXXXXXXXXXXooooooooo  ",
"  oooooooXXXXXXXXXXXXXXooooooo  ",
"  oooooooXXXXXXXXXXXXXXooooooo  ",
" oooooooXXXXXXoooXXXXXXXooooooo ",
" ooooooXXXXXoo...ooOXXXXooooooo ",
" ooooooXXXXXo.....oXXXXXXoooooo ",
" oooOooXXXXo...o...oXXXXXooOooo ",
" ooooooXXXXoO.o o..oXXXXXoooooo ",
" ooooooXXXXo...o...oXXXXXoooooo ",
" ooooooXXXXXo.....oXXXXXXoooooo ",
" ooooooXXXXXoo...ooXXXXXooooooo ",
"  ooooooXXXXXXoooXXXXXXXoooooo  ",
"  oooooooXXXXXXXXXXXXXOooooooo  ",
"  oooooooXXXXXXXXXXXXXXooooooo  ",
"   ooOoooooXXXXXXXXXXoooooooo   ",
"    oooooooooXXXXXXooooooooo    ",
"    oooooooooooooooooooooooo    ",
"     ooooooooOooooooooooooo   O ",
"      oooooooooooooooooooo      ",
"       Ooooooooooooooooo        ",
"         oooooooooooooo         ",
"O           oooooooo            ",
"                        O       "
};
