/* XPM */
static char *_efd1abda03b4b0ec339e0b638db2d15yTRh9NDTEt3ImkQ5[] = {
/* columns rows colors chars-per-pixel */
"32 32 6 1 ",
"  c black",
". c #464646",
"X c #B4B4B4",
"o c #FFF9BD",
"O c #FBFBFB",
"+ c white",
/* pixels */
"       o   ..++++++..           ",
" o        .++X++++X++.       o  ",
"         .OXX++++++XXO.         ",
"        .+X++++++++++X+.        ",
"        .X++++++++++++X.        ",
"        .++++++++++++++. o      ",
"     o .+X+++++++++++++.        ",
"       .++++++++++++++X+.       ",
"       .++++++++++++++++.       ",
"       .++++++++++++++++.       ",
"       .++++++++++++++++.       ",
" o    .++++++++++++++++++.      ",
"      .++++++++++++++++++.      ",
"      .++++++++++++++++++.      ",
"      .++++++++++++++++++.      ",
"      .++++++++++++++++++.      ",
"   o  .+++++X+++++++X++++.      ",
"      .+++++X+++++++X++++.      ",
"      .++++X+++++++++X+++.      ",
"      .++++X+++++++++X+++.   o  ",
"      .++++X+++++++++X+++.      ",
" o    .+++X++++++++++X+++.      ",
"      .++X++++++++++++X+++.     ",
"      .++X+++++++++++++X++.     ",
"     .+XX+++++++++++++++XX.    o",
"     .++++++++++++++++++++.     ",
"   o .++++++++++++++++++++.     ",
"     .++++++++++++++++++++.     ",
"     .++++++++XX++++++++++.     ",
"    .++++++++XXXXX+++++++++.    ",
"o   .+++++++XXXXXXXX+++++++.    ",
"    .++++++XXXXXXXXXX++++++.  o "
};
