/* XPM */
static char *_8338c2af9364da4ec95e65eb47c623aAYBY6GlglnN25zpO[] = {
/* columns rows colors chars-per-pixel */
"32 32 6 1 ",
"  c black",
". c #464646",
"X c #B4B4B4",
"o c #FFF9BD",
"O c #FBFBFB",
"+ c white",
/* pixels */
"       o   ..++++++..           ",
" o        .++++++++++.       o  ",
"         .O++++++++++O.         ",
"        .++++++++++++++.        ",
"        .++++++++++++++.        ",
"        .+++.+++++.++++. o      ",
"     o .+++..+++++..+++.        ",
"       .++....+++....+++.       ",
"       .++....+++....+++.       ",
"       .++....+++....+++.       ",
"       .++++++++++++++++.       ",
" o    .++++++++++++++++++.      ",
"      .++++++++++++++++++.      ",
"      .+++++++...++++++++.      ",
"      ....++++++++++++....      ",
"      .+++.++++++++++.+++.      ",
"   o  .++++.++++++++.++++.      ",
"      .+++++.++++++.+++++.      ",
"      .+++++.++++++.+++++.      ",
"      .+++++.++++++.+++++.   o  ",
"      .++++.X.++++.X.++++.      ",
" o    .+++.XX.++++.XX.+++.      ",
"      .++.XX.++++++.XX.+++.     ",
"      .+.XXX.++++++.XXX.++.     ",
"     .X.XXX.++++++++.XXX.+.    o",
"     ..XX...++++++++...XX..     ",
"   o .XX.++++++++++++++.XX.     ",
"     ...++++++++++++++++...     ",
"     .++++++++++++++++++++.     ",
"    .++++++++X+++++++++++++.    ",
"o   .+++++++XXXXX++++++++++.    ",
"    .++++++XXXXXXXXX+++++++.  o "
};
