/* XPM */
static char *c2ccb61847984858de2cd3d3a89bf7f9iEvDoWxlQWXyDJqs[] = {
/* columns rows colors chars-per-pixel */
"32 32 11 1 ",
"  c black",
". c #464646",
"X c gray59",
"o c #9D9D9D",
"O c gray63",
"+ c #B6B6B6",
"@ c #BCBCBC",
"# c #FFF9BD",
"$ c gray93",
"% c #FBFBFB",
"& c white",
/* pixels */
"       #   ..&&&&&&..           ",
" #        .&&&&&&&&&&.       #  ",
"         .%&&&&&&&&&&%.         ",
"        .&&&&&&&&.&&.&&.        ",
"        .&&&&&&&&.&&.&&.        ",
"        .&&&&&&&..&&..&. #      ",
"     # .&&&&&&....&&..&.        ",
"       .&&&&&&....&&..&......   ",
"       .&&&&&&XXXX&&XX&XXXXXX   ",
"       .&&%%%%&&&&&&&&&&&&&&&.  ",
"       .&&....&&&&&&&&&&&&&&&&. ",
" #    .&&.&&&&.&&&..&&&&&&&&&&. ",
"      .&.&&&&&&.&&&&&&&&&&&&&&. ",
"      .&.&&&&&&.$&&&&&&&&&$$$$. ",
"      .&&&&&&&&&.&&&&&&&&%....  ",
"      .&&&&&&&&&.&&&&&&&&.oo.   ",
"   #  .&&&&&&&...&&&&&&&&.oo.   ",
"      .&&&&&&.+.&&&&&&&&&.o.    ",
"      .&&&&&&.o.&&&&&&&&&.o.    ",
"      .&&&&&&.o.&&&&&&&&&.o. #  ",
"      .&&&&&.o.&&&&&&&&&&..     ",
" #    .&&&&.oo.&&&&&&&&&&.      ",
"      .&&&&.o.&&&&&&&&&&&.      ",
"      .&&&&.@.&&&&&&&&&&&.      ",
"     .&&&&&..&&&&&&&&&&&&.     #",
"     .&&&&&.&&&&&&&&&&&&.       ",
"   # .&&&&&.&&&&.......&.       ",
"     .&&&&.&&&&.OOOOOOO..       ",
"     .&&&&.&&&&.ooooooo..       ",
"    .&&&&&&&&&..ooooooo.. #     ",
"#  .&&&&&&&&&.o.ooooooo.        ",
"   .&&&&&&&&&&.........       # "
};
