/* XPM */
static char *_830befaca264d4c9b8e8285961322a4397FQLNILkePPCHQ[] = {
/* columns rows colors chars-per-pixel */
"32 32 11 1 ",
"  c black",
". c #464646",
"X c gray59",
"o c #9D9D9D",
"O c gray63",
"+ c #B6B6B6",
"@ c #BCBCBC",
"# c #FFF9BD",
"$ c gray93",
"% c #FBFBFB",
"& c white",
/* pixels */
"           ..&&&&&&..   #       ",
"  #       .&&&&&&&&&&.        # ",
"         .%&&&&&&&&&&%.         ",
"        .&&.&&.&&&&&&&&.        ",
"        .&&.&&.&&&&&&&&.        ",
"      # .&..&&..&&&&&&&.        ",
"        .&..&&....&&&&&&. #     ",
"   ......&..&&....&&&&&&.       ",
"   XXXXXX&XX&&XXXX&&&&&&.       ",
"  .&&&&&&&&&&&&&&&%%%%&&.       ",
" .&&&&&&&&&&&&&&&&....&&.       ",
" .&&&&&&&&&&..&&&.&&&&.&&.    # ",
" .&&&&&&&&&&&&&&.&&&&&&.&.      ",
" .$$$$&&&&&&&&&$.&&&&&&.&.      ",
"  ....%&&&&&&&&.&&&&&&&&&.      ",
"   .oo.&&&&&&&&.&&&&&&&&&.      ",
"   .oo.&&&&&&&&...&&&&&&&.  #   ",
"    .o.&&&&&&&&&.+.&&&&&&.      ",
"    .o.&&&&&&&&&.o.&&&&&&.      ",
"  # .o.&&&&&&&&&.o.&&&&&&.      ",
"     ..&&&&&&&&&&.o.&&&&&.      ",
"      .&&&&&&&&&&.oo.&&&&.    # ",
"      .&&&&&&&&&&&.o.&&&&.      ",
"      .&&&&&&&&&&&.@.&&&&.      ",
"#     .&&&&&&&&&&&&..&&&&&.     ",
"       .&&&&&&&&&&&&.&&&&&.     ",
"       .&.......&&&&.&&&&&. #   ",
"       ..OOOOOOO.&&&&.&&&&.     ",
"       ..ooooooo.&&&&.&&&&.     ",
"     # ..ooooooo..&&&&&&&&&.    ",
"        .ooooooo.o.&&&&&&&&&.  #",
" #       .........&&&&&&&&&&.   "
};
