/* XPM */
static char *_ce0b8cf91304713c79ddbb7846bc9a8yGWHaJkM9KGdevgv[] = {
/* columns rows colors chars-per-pixel */
"32 32 6 1 ",
"  c black",
". c gray13",
"X c gray15",
"o c gray22",
"O c #464646",
"+ c #FFF9BD",
/* pixels */
"                        +       ",
"  +                           + ",
"               +      +         ",
"                                ",
"           + XXXXXX             ",
"      +     XOOOOOoX            ",
"           XOOOOOooOX     +     ",
"           XooOOOoOOX           ",
"           XOoOOOoOOX           ",
"        XXXOOoOOooOOOXXX        ",
"    +  XOOOOOooOoOOOOOOOX       ",
"      XOOOOOOOoooOOOOOOOOX    + ",
"      XOOOOOOOOoOOOOOOOOOX      ",
"      XOOOOOOOOOoOOOOOOOOX      ",
"     XOOOOOOOOOOooOOOOOOOOX     ",
"  +  XOOO...OO...o...OOOOOX     ",
"     XOOO.OO.oo.Oo.OO.OOOOX     ",
"     XOOO.OO.OO.OO.OO.OOOOX     ",
"     XOOO...oOO.OO...OOOOOX     ",
"  +  XOOO.O.OOO.OO.OOOOOOOX     ",
"     XOOO.OO.OO.OO.OOOOOOOX     ",
"     XOOO.OO.O...O.OOOOOOOo   + ",
"     XOOOOOOOOOOOOOOOOOOOoX     ",
"    +XOOOOOOOOOOOOOOOOOOooX     ",
"+    XOOOOOOOOOOOOOOOOOooOX     ",
"     XOOOOOOOOOOOOOOOOoOOOX     ",
"     oOOOOOOOOOOOOOOOOOooOX +   ",
"     XoOOOOOoOOOOOOOOOOOoOX     ",
"     XOoOOOoOOOOOOOOOOooOOX     ",
"     XOOoOoOOOOOOOOOOOoOOOX     ",
"     XOOOoOOOOOOOOOOOoOOOOX    +",
" +   XOooOOOOOOOOOOOooOOOOX     "
};
